<mxfile host="65bd71144e">
    <diagram id="G-QBOBEtXtLJ5XEbsBTF" name="Page-1">
        <mxGraphModel dx="773" dy="605" grid="1" gridSize="10" guides="1" tooltips="1" connect="1" arrows="1" fold="1" page="1" pageScale="1" pageWidth="827" pageHeight="1169" math="0" shadow="0">
            <root>
                <mxCell id="0"/>
                <mxCell id="1" parent="0"/>
                <mxCell id="2" value="Customer" style="shape=umlActor;verticalLabelPosition=bottom;verticalAlign=top;html=1;outlineConnect=0;" vertex="1" parent="1">
                    <mxGeometry x="20" y="10" width="40" height="80" as="geometry"/>
                </mxCell>
                <mxCell id="3" value="" style="endArrow=classic;html=1;" edge="1" parent="1">
                    <mxGeometry width="50" height="50" relative="1" as="geometry">
                        <mxPoint x="80" y="60" as="sourcePoint"/>
                        <mxPoint x="240" y="60" as="targetPoint"/>
                    </mxGeometry>
                </mxCell>
                <mxCell id="15" value="&amp;lt;&amp;lt;include&amp;gt;&amp;gt;" style="html=1;verticalAlign=bottom;labelBackgroundColor=none;endArrow=open;endFill=0;dashed=1;exitX=-0.003;exitY=0.585;exitDx=0;exitDy=0;exitPerimeter=0;entryX=1.004;entryY=0.585;entryDx=0;entryDy=0;entryPerimeter=0;" edge="1" parent="1" source="30" target="25">
                    <mxGeometry width="160" relative="1" as="geometry">
                        <mxPoint x="545.0000000000002" y="100" as="sourcePoint"/>
                        <mxPoint x="414" y="80" as="targetPoint"/>
                    </mxGeometry>
                </mxCell>
                <mxCell id="17" value="&amp;lt;&amp;lt;include&amp;gt;&amp;gt;" style="html=1;verticalAlign=bottom;labelBackgroundColor=none;endArrow=open;endFill=0;dashed=1;" edge="1" parent="1">
                    <mxGeometry width="160" relative="1" as="geometry">
                        <mxPoint x="634.5" y="150" as="sourcePoint"/>
                        <mxPoint x="634.5" y="230" as="targetPoint"/>
                    </mxGeometry>
                </mxCell>
                <mxCell id="19" value="" style="shape=ellipse;container=1;horizontal=1;horizontalStack=0;resizeParent=1;resizeParentMax=0;resizeLast=0;html=1;dashed=0;collapsible=0;" vertex="1" parent="1">
                    <mxGeometry x="240" y="180" width="180" height="120" as="geometry"/>
                </mxCell>
                <mxCell id="20" value="Add to Basket" style="html=1;strokeColor=none;fillColor=none;align=center;verticalAlign=middle;rotatable=0;" vertex="1" parent="19">
                    <mxGeometry width="180" height="30" as="geometry"/>
                </mxCell>
                <mxCell id="21" value="" style="line;strokeWidth=1;fillColor=none;rotatable=0;labelPosition=right;points=[];portConstraint=eastwest;dashed=0;resizeWidth=1;" vertex="1" parent="19">
                    <mxGeometry x="9" y="30" width="162" height="10" as="geometry"/>
                </mxCell>
                <mxCell id="24" value="&amp;lt;&amp;lt;include&amp;gt;&amp;gt;" style="html=1;verticalAlign=bottom;labelBackgroundColor=none;endArrow=open;endFill=0;dashed=1;" edge="1" parent="1">
                    <mxGeometry width="160" relative="1" as="geometry">
                        <mxPoint x="330" y="130" as="sourcePoint"/>
                        <mxPoint x="330" y="180" as="targetPoint"/>
                        <Array as="points"/>
                    </mxGeometry>
                </mxCell>
                <mxCell id="25" value="" style="shape=ellipse;container=1;horizontal=1;horizontalStack=0;resizeParent=1;resizeParentMax=0;resizeLast=0;html=1;dashed=0;collapsible=0;" vertex="1" parent="1">
                    <mxGeometry x="234" y="10" width="180" height="120" as="geometry"/>
                </mxCell>
                <mxCell id="26" value="Browse Products" style="html=1;strokeColor=none;fillColor=none;align=center;verticalAlign=middle;rotatable=0;" vertex="1" parent="25">
                    <mxGeometry width="180" height="30" as="geometry"/>
                </mxCell>
                <mxCell id="27" value="" style="line;strokeWidth=1;fillColor=none;rotatable=0;labelPosition=right;points=[];portConstraint=eastwest;dashed=0;resizeWidth=1;" vertex="1" parent="25">
                    <mxGeometry x="9" y="30" width="162" height="10" as="geometry"/>
                </mxCell>
                <mxCell id="30" value="" style="shape=ellipse;container=1;horizontal=1;horizontalStack=0;resizeParent=1;resizeParentMax=0;resizeLast=0;html=1;dashed=0;collapsible=0;" vertex="1" parent="1">
                    <mxGeometry x="545" y="30" width="180" height="120" as="geometry"/>
                </mxCell>
                <mxCell id="31" value="Query DB" style="html=1;strokeColor=none;fillColor=none;align=center;verticalAlign=middle;rotatable=0;" vertex="1" parent="30">
                    <mxGeometry width="180" height="30" as="geometry"/>
                </mxCell>
                <mxCell id="32" value="" style="line;strokeWidth=1;fillColor=none;rotatable=0;labelPosition=right;points=[];portConstraint=eastwest;dashed=0;resizeWidth=1;" vertex="1" parent="30">
                    <mxGeometry x="9" y="30" width="162" height="10" as="geometry"/>
                </mxCell>
                <mxCell id="35" value="" style="shape=ellipse;container=1;horizontal=1;horizontalStack=0;resizeParent=1;resizeParentMax=0;resizeLast=0;html=1;dashed=0;collapsible=0;" vertex="1" parent="1">
                    <mxGeometry x="545" y="230" width="180" height="120" as="geometry"/>
                </mxCell>
                <mxCell id="36" value="Authentication" style="html=1;strokeColor=none;fillColor=none;align=center;verticalAlign=middle;rotatable=0;" vertex="1" parent="35">
                    <mxGeometry width="180" height="30" as="geometry"/>
                </mxCell>
                <mxCell id="37" value="" style="line;strokeWidth=1;fillColor=none;rotatable=0;labelPosition=right;points=[];portConstraint=eastwest;dashed=0;resizeWidth=1;" vertex="1" parent="35">
                    <mxGeometry x="9" y="30" width="162" height="10" as="geometry"/>
                </mxCell>
                <mxCell id="40" value="&amp;lt;&amp;lt;include&amp;gt;&amp;gt;" style="html=1;verticalAlign=bottom;labelBackgroundColor=none;endArrow=open;endFill=0;dashed=1;entryX=0.976;entryY=0.688;entryDx=0;entryDy=0;entryPerimeter=0;exitX=0.001;exitY=0.398;exitDx=0;exitDy=0;exitPerimeter=0;" edge="1" parent="1" source="35" target="19">
                    <mxGeometry width="160" relative="1" as="geometry">
                        <mxPoint x="560" y="340" as="sourcePoint"/>
                        <mxPoint x="370" y="290" as="targetPoint"/>
                    </mxGeometry>
                </mxCell>
                <mxCell id="41" value="&amp;lt;&amp;lt;include&amp;gt;&amp;gt;" style="html=1;verticalAlign=bottom;labelBackgroundColor=none;endArrow=open;endFill=0;dashed=1;exitX=0.451;exitY=1.028;exitDx=0;exitDy=0;exitPerimeter=0;entryX=0.447;entryY=0.033;entryDx=0;entryDy=0;entryPerimeter=0;" edge="1" parent="1" source="19" target="43">
                    <mxGeometry width="160" relative="1" as="geometry">
                        <mxPoint x="260" y="340" as="sourcePoint"/>
                        <mxPoint x="321" y="350" as="targetPoint"/>
                    </mxGeometry>
                </mxCell>
                <mxCell id="42" value="" style="shape=ellipse;container=1;horizontal=1;horizontalStack=0;resizeParent=1;resizeParentMax=0;resizeLast=0;html=1;dashed=0;collapsible=0;" vertex="1" parent="1">
                    <mxGeometry x="240" y="340" width="180" height="120" as="geometry"/>
                </mxCell>
                <mxCell id="43" value="Checkout" style="html=1;strokeColor=none;fillColor=none;align=center;verticalAlign=middle;rotatable=0;" vertex="1" parent="42">
                    <mxGeometry width="180" height="30" as="geometry"/>
                </mxCell>
                <mxCell id="44" value="" style="line;strokeWidth=1;fillColor=none;rotatable=0;labelPosition=right;points=[];portConstraint=eastwest;dashed=0;resizeWidth=1;" vertex="1" parent="42">
                    <mxGeometry x="9" y="30" width="162" height="10" as="geometry"/>
                </mxCell>
                <mxCell id="49" value="" style="shape=ellipse;container=1;horizontal=1;horizontalStack=0;resizeParent=1;resizeParentMax=0;resizeLast=0;html=1;dashed=0;collapsible=0;" vertex="1" parent="1">
                    <mxGeometry x="520" y="370" width="180" height="120" as="geometry"/>
                </mxCell>
                <mxCell id="50" value="Order Generated" style="html=1;strokeColor=none;fillColor=none;align=center;verticalAlign=middle;rotatable=0;" vertex="1" parent="49">
                    <mxGeometry width="180" height="30" as="geometry"/>
                </mxCell>
                <mxCell id="51" value="" style="line;strokeWidth=1;fillColor=none;rotatable=0;labelPosition=right;points=[];portConstraint=eastwest;dashed=0;resizeWidth=1;" vertex="1" parent="49">
                    <mxGeometry x="9" y="30" width="162" height="10" as="geometry"/>
                </mxCell>
                <mxCell id="54" value="" style="shape=ellipse;container=1;horizontal=1;horizontalStack=0;resizeParent=1;resizeParentMax=0;resizeLast=0;html=1;dashed=0;collapsible=0;" vertex="1" parent="1">
                    <mxGeometry x="260" y="500" width="180" height="120" as="geometry"/>
                </mxCell>
                <mxCell id="55" value="Delivery" style="html=1;strokeColor=none;fillColor=none;align=center;verticalAlign=middle;rotatable=0;" vertex="1" parent="54">
                    <mxGeometry width="180" height="30" as="geometry"/>
                </mxCell>
                <mxCell id="56" value="" style="line;strokeWidth=1;fillColor=none;rotatable=0;labelPosition=right;points=[];portConstraint=eastwest;dashed=0;resizeWidth=1;" vertex="1" parent="54">
                    <mxGeometry x="9" y="30" width="162" height="10" as="geometry"/>
                </mxCell>
                <mxCell id="60" value="" style="endArrow=classic;html=1;exitX=-0.011;exitY=0.448;exitDx=0;exitDy=0;exitPerimeter=0;" edge="1" parent="1" source="54">
                    <mxGeometry width="50" height="50" relative="1" as="geometry">
                        <mxPoint x="150" y="520" as="sourcePoint"/>
                        <mxPoint x="50" y="120" as="targetPoint"/>
                    </mxGeometry>
                </mxCell>
                <mxCell id="61" value="" style="endArrow=classic;html=1;entryX=0;entryY=0.333;entryDx=0;entryDy=0;entryPerimeter=0;" edge="1" parent="1" source="2" target="42">
                    <mxGeometry width="50" height="50" relative="1" as="geometry">
                        <mxPoint x="50" y="75" as="sourcePoint"/>
                        <mxPoint x="130" y="105" as="targetPoint"/>
                    </mxGeometry>
                </mxCell>
                <mxCell id="62" value="" style="endArrow=classic;html=1;entryX=0;entryY=0.5;entryDx=0;entryDy=0;" edge="1" parent="1" target="19">
                    <mxGeometry width="50" height="50" relative="1" as="geometry">
                        <mxPoint x="60" y="70" as="sourcePoint"/>
                        <mxPoint x="190" y="80" as="targetPoint"/>
                    </mxGeometry>
                </mxCell>
                <mxCell id="63" value="" style="endArrow=classic;html=1;entryX=0;entryY=0.5;entryDx=0;entryDy=0;exitX=1;exitY=0.5;exitDx=0;exitDy=0;" edge="1" parent="1" source="42" target="49">
                    <mxGeometry width="50" height="50" relative="1" as="geometry">
                        <mxPoint x="350" y="340" as="sourcePoint"/>
                        <mxPoint x="400" y="290" as="targetPoint"/>
                    </mxGeometry>
                </mxCell>
                <mxCell id="64" value="" style="endArrow=classic;html=1;entryX=0.976;entryY=0.648;entryDx=0;entryDy=0;entryPerimeter=0;exitX=0.256;exitY=0.958;exitDx=0;exitDy=0;exitPerimeter=0;" edge="1" parent="1" source="49" target="54">
                    <mxGeometry width="50" height="50" relative="1" as="geometry">
                        <mxPoint x="450" y="540" as="sourcePoint"/>
                        <mxPoint x="500" y="490" as="targetPoint"/>
                    </mxGeometry>
                </mxCell>
            </root>
        </mxGraphModel>
    </diagram>
    <diagram id="NB4lRe6G5YYx8cawflKE" name="Page-2">
        <mxGraphModel dx="734" dy="575" grid="1" gridSize="10" guides="1" tooltips="1" connect="1" arrows="1" fold="1" page="1" pageScale="1" pageWidth="827" pageHeight="1169" math="0" shadow="0">
            <root>
                <mxCell id="ur_BgB7zsAgVzKjBTCpK-0"/>
                <mxCell id="ur_BgB7zsAgVzKjBTCpK-1" parent="ur_BgB7zsAgVzKjBTCpK-0"/>
                <mxCell id="ur_BgB7zsAgVzKjBTCpK-2" value="" style="shape=ellipse;container=1;horizontal=1;horizontalStack=0;resizeParent=1;resizeParentMax=0;resizeLast=0;html=1;dashed=0;collapsible=0;" vertex="1" parent="ur_BgB7zsAgVzKjBTCpK-1">
                    <mxGeometry x="10" y="30" width="180" height="120" as="geometry"/>
                </mxCell>
                <mxCell id="ur_BgB7zsAgVzKjBTCpK-3" value="Order Generated" style="html=1;strokeColor=none;fillColor=none;align=center;verticalAlign=middle;rotatable=0;" vertex="1" parent="ur_BgB7zsAgVzKjBTCpK-2">
                    <mxGeometry width="180" height="30" as="geometry"/>
                </mxCell>
                <mxCell id="ur_BgB7zsAgVzKjBTCpK-4" value="" style="line;strokeWidth=1;fillColor=none;rotatable=0;labelPosition=right;points=[];portConstraint=eastwest;dashed=0;resizeWidth=1;" vertex="1" parent="ur_BgB7zsAgVzKjBTCpK-2">
                    <mxGeometry x="9" y="30" width="162" height="10" as="geometry"/>
                </mxCell>
                <mxCell id="ur_BgB7zsAgVzKjBTCpK-6" value="Extension point 1" style="text;html=1;align=left;verticalAlign=middle;rotatable=0;spacingLeft=25;" vertex="1" parent="ur_BgB7zsAgVzKjBTCpK-2">
                    <mxGeometry y="70" width="180" height="30" as="geometry"/>
                </mxCell>
            </root>
        </mxGraphModel>
    </diagram>
</mxfile>